<svg xmlns="http://www.w3.org/2000/svg" width="16" height="15" viewBox="0 0 16 15">
    <g fill="#ffffff" fill-rule="nonzero">
        <path d="M7.209 9.953c.385.404.85.653 1.29.703.449.043.923-.106 1.448-.692.163-.181.341-.391.64-.492.3-.1.66-.038 1.044.168.73.555 1.484 1.117 2.203 1.688.343.342.43.794.32 1.148-.11.355-.347.623-.566.848-1.22 1.272-2.667 1.887-4.086 1.672-1.37-.238-2.698-1.198-4.168-2.668l-1.75-1.75C2.114 9.108 1.154 7.78.916 6.41c-.282-1.696.618-3.076 1.672-4.086.225-.22.493-.456.847-.567.355-.11.806-.022 1.149.32.57.72 1.133 1.473 1.687 2.204.207.383.269.743.168 1.043-.1.3-.31.478-.492.64-.586.525-.734 1-.691 1.45.05.439.3.904.703 1.289m-.5.5c-.473-.46-.846-1.049-.91-1.723-.065-.676.217-1.408.926-2.043.172-.155.266-.262.293-.34.025-.077.032-.188-.114-.465l-1.57-2.054c-.203-.203-.284-.197-.438-.149-.153.048-.365.207-.562.399-1.266 1.265-1.663 2.337-1.469 3.46.195 1.124 1.042 2.362 2.469 3.79l1.75 1.75c1.427 1.427 2.666 2.274 3.79 2.469 1.122.194 2.194-.204 3.46-1.47.192-.196.35-.408.398-.562.048-.154.054-.235-.148-.437l-2.055-1.57c-.276-.147-.388-.14-.465-.114-.078.026-.185.12-.34.293-.635.71-1.366.99-2.042.926-.674-.064-1.264-.437-1.723-.91M13.24 6.198a.354.354 0 1 0 0-.708h-2.326l4.695-4.7a.35.35 0 0 0 0-.498.35.35 0 0 0-.497 0l-4.701 4.696V2.662a.354.354 0 1 0-.707 0v3.182c0 .195.158.354.353.354h3.183z"/>
    </g>
</svg>
