<svg xmlns="http://www.w3.org/2000/svg" width="19" height="18" viewBox="0 0 19 18">
    <path fill="#CE2129" fill-rule="evenodd" d="M18.084 5.855c-.002.019.012.035.008.055l-2.258 7.659c.005.027.017.051.017.08 0 .28-.207.5-.474.544a.503.503 0 0 1-.085.018H7.414c-.008 0-.014-.004-.022-.004-.275.006-.53-.15-.604-.404l-2.04-7.657a.559.559 0 0 1-.147-.372c0-.037.014-.068.02-.103l-1.02-3.835H.663a.562.562 0 1 1 0-1.125h3.375c.008 0 .013.005.021.005.275-.006.53.15.604.403l1.09 4.092H17.538l.007.001a.494.494 0 0 1 .17.012c.016.004.021.024.038.03.09.037.162.103.222.18.027.035.052.06.07.103a.556.556 0 0 1 .056.237c0 .028-.012.053-.017.08zm-12.03.48l1.797 6.751h7.01l1.989-6.75H6.053zm1.922 9.001a1.125 1.125 0 1 1 0 2.25 1.125 1.125 0 0 1 0-2.25zm5.625 0a1.125 1.125 0 1 1 0 2.25 1.125 1.125 0 0 1 0-2.25z"/>
</svg>
