<svg xmlns="http://www.w3.org/2000/svg" width="26" height="24" viewBox="0 0 26 24">
    <path fill="#3F419A" fill-rule="evenodd" d="M25.096 7.624c-.003.025.016.047.01.074l-3.04 10.314c.006.037.022.07.022.108a.747.747 0 0 1-.638.733.677.677 0 0 1-.115.024l-.004.001H10.725c-.01 0-.019-.006-.03-.006-.369.008-.712-.201-.813-.544L7.136 8.015a.753.753 0 0 1-.198-.5c0-.05.018-.092.027-.14L5.59 2.213H1.635a.757.757 0 1 1 0-1.515H6.18c.01 0 .018.006.03.006.369-.008.713.201.813.543l1.468 5.51h15.817c.011 0 .022.002.034 0h.019l.009.003a.665.665 0 0 1 .228.015c.023.006.03.032.051.04.122.05.22.14.3.242.037.048.07.083.094.14a.749.749 0 0 1 .076.319c0 .038-.017.07-.023.109zM8.894 8.27l2.42 9.091h9.441l2.679-9.09H8.894zm2.589 12.121a1.515 1.515 0 1 1 0 3.03 1.515 1.515 0 0 1 0-3.03zm7.575 0a1.515 1.515 0 1 1 0 3.03 1.515 1.515 0 0 1 0-3.03z"/>
</svg>
