<svg xmlns="http://www.w3.org/2000/svg" width="18" height="18" viewBox="0 0 18 18">
    <path fill="#FFF" fill-rule="evenodd" d="M17.98 5.35c-.002.02.012.036.008.055l-2.257 7.659c.004.028.016.052.016.08 0 .28-.207.5-.474.544a.503.503 0 0 1-.085.018H7.31c-.008 0-.014-.004-.022-.004-.275.007-.53-.15-.604-.403L4.644 5.64a.559.559 0 0 1-.147-.371c0-.037.014-.069.02-.104l-1.02-3.834H.56a.562.562 0 1 1 0-1.125h3.375c.008 0 .013.004.021.004.275-.005.53.15.604.404l1.09 4.091H17.434l.007.002a.494.494 0 0 1 .17.011c.016.004.021.024.038.03.09.037.162.103.222.18.027.035.052.061.07.103a.556.556 0 0 1 .056.237c0 .029-.012.053-.016.081zm-12.03.481l1.797 6.75h7.01l1.989-6.75H5.95zm1.922 9a1.125 1.125 0 1 1 0 2.25 1.125 1.125 0 0 1 0-2.25zm5.625 0a1.125 1.125 0 1 1 0 2.25 1.125 1.125 0 0 1 0-2.25z"/>
</svg>
