<svg xmlns="http://www.w3.org/2000/svg" width="17" height="17" viewBox="0 0 17 17">
    <path fill="#FFF" fill-rule="nonzero" d="M7.44 13.119l2.68 2.76a.787.787 0 0 0 .628.304.816.816 0 0 0 .69-.386c.04-.04.06-.101.081-.162l.71-2.536h1.664a3.04 3.04 0 0 0 3.043-3.044V3.36A3.04 3.04 0 0 0 13.893.316H3.95A3.04 3.04 0 0 0 .908 3.36v6.695A3.04 3.04 0 0 0 3.95 13.1h3.49v.02zm-5.315-3.044V3.38c0-1.015.812-1.826 1.826-1.826h9.942c1.014 0 1.826.811 1.826 1.826v6.695a1.818 1.818 0 0 1-1.826 1.827h-2.13a.627.627 0 0 0-.589.446l-.629 2.232-2.394-2.496a.597.597 0 0 0-.446-.182H3.95a1.818 1.818 0 0 1-1.826-1.827zm1.927-5.153h9.537a.598.598 0 0 0 .608-.609.598.598 0 0 0-.608-.608H4.052a.598.598 0 0 0-.608.608c0 .345.264.609.608.609zm0 2.435h9.537a.598.598 0 0 0 .608-.609.598.598 0 0 0-.608-.609H4.052a.598.598 0 0 0-.608.609c0 .345.264.609.608.609zm5.722 2.232a.598.598 0 0 0 .609-.61.598.598 0 0 0-.609-.608H4.052a.598.598 0 0 0-.608.609c0 .345.264.609.608.609h5.722z"/>
</svg>
