<?xml version="1.0" encoding="utf-8"?>
<!-- Generator: Adobe Illustrator 19.0.0, SVG Export Plug-In . SVG Version: 6.00 Build 0)  -->
<svg version="1.1" id="Capa_1" xmlns="http://www.w3.org/2000/svg" xmlns:xlink="http://www.w3.org/1999/xlink" x="0px" y="0px"
	 viewBox="-212.4 392.4 10 10" style="enable-background:new -212.4 392.4 10 10;" xml:space="preserve">
<style type="text/css">
	.st0{fill:#6D6E71;}
</style>
<g>
	<g>
		<path class="st0" d="M-207.4,392.4c-2.8,0-5,2.2-5,5s2.2,5,5,5s5-2.2,5-5S-204.7,392.4-207.4,392.4z M-207.4,401.4
			c-2.2,0-3.9-1.8-3.9-3.9s1.8-3.9,3.9-3.9s3.9,1.8,3.9,3.9S-205.2,401.4-207.4,401.4z"/>
		<path class="st0" d="M-204.8,397.3h-2.2v-2.7c0-0.2-0.2-0.4-0.4-0.4s-0.4,0.2-0.4,0.4v3.1c0,0.2,0.2,0.4,0.4,0.4h2.7
			c0.2,0,0.4-0.2,0.4-0.4S-204.6,397.3-204.8,397.3z"/>
	</g>
</g>
</svg>
