<?xml version="1.0" encoding="utf-8"?>
<!-- Generator: Adobe Illustrator 19.0.0, SVG Export Plug-In . SVG Version: 6.00 Build 0)  -->
<svg version="1.1" id="Layer_1" xmlns="http://www.w3.org/2000/svg" xmlns:xlink="http://www.w3.org/1999/xlink" x="0px" y="0px"
	 viewBox="0 0 40 40" style="enable-background:new 0 0 40 40;" xml:space="preserve">
<path id="XMLID_1_" style="fill:#FFFFFF;" d="M23.4,20L39.3,4.2c1-1,1-2.5,0-3.4c-1-1-2.5-1-3.4,0L20,16.6L4.2,0.7c-1-1-2.5-1-3.4,0
	c-1,1-1,2.5,0,3.4L16.6,20L0.7,35.8c-1,1-1,2.5,0,3.4C1.2,39.8,1.8,40,2.4,40s1.2-0.2,1.7-0.7L20,23.4l15.8,15.8
	c0.5,0.5,1.1,0.7,1.7,0.7c0.6,0,1.2-0.2,1.7-0.7c1-1,1-2.5,0-3.4L23.4,20z"/>
</svg>
