<svg xmlns="http://www.w3.org/2000/svg" width="32" height="29" viewBox="0 0 32 29">
    <path fill="#3F419A" fill-rule="nonzero" d="M30.41 12.418l-2.019-1.04-1.585-4.312a2.549 2.549 0 0 0-2.376-1.663h-3.942v-3.73a.803.803 0 0 0-.803-.803H5a.803.803 0 0 0-.797.802v1.99a.803.803 0 0 0 1.606 0v-1.19h13.072v15.865H5.81v-1.19a.803.803 0 1 0-1.606 0v8.025c0 .444.36.803.803.803h2.966a3.625 3.625 0 0 0 7.063 0h5.862a3.625 3.625 0 0 0 7.063-.02c.058.014.117.02.177.02h2.825c.443 0 .803-.36.803-.803V14.674a2.53 2.53 0 0 0-1.355-2.256zm-9.922-5.41h3.942a.937.937 0 0 1 .876.613l1.692 4.604c.07.189.207.344.385.437l2.296 1.181c.312.16.508.48.507.831v3.663h-9.698V7.008zm-8.99 20.187a2.023 2.023 0 1 1 2.023-2.023 2.026 2.026 0 0 1-2.02 2.026l-.003-.003zm12.941 0a2.023 2.023 0 1 1 1.427-.588c-.38.38-.898.593-1.436.591l.01-.003zm5.74-2.825h-2.022a.803.803 0 0 0-.176.02 3.625 3.625 0 0 0-7.063-.02h-5.882a3.625 3.625 0 0 0-7.063 0H5.81v-4.427h24.373l-.003 4.427zM1.18 7.714a.803.803 0 1 1 0-1.605h6.931a.803.803 0 0 1 0 1.605h-6.93zm7.734 2.69c0 .444-.36.803-.803.803H2.464a.803.803 0 1 1 0-1.605h5.647c.444 0 .803.36.803.803zm0 3.494c0 .443-.36.802-.803.802H3.75a.803.803 0 1 1 0-1.605H8.11c.444 0 .803.36.803.803z"/>
</svg>
