<svg xmlns="http://www.w3.org/2000/svg" width="14" height="18" viewBox="0 0 14 18">
    <path fill="#A7A9AC" fill-rule="nonzero" d="M8.883 1.27A1.764 1.764 0 0 0 7.616.762H3.394A2.955 2.955 0 0 0 .44 3.718V14.13a2.955 2.955 0 0 0 2.955 2.956h6.755a2.955 2.955 0 0 0 2.955-2.956V6.026c0-.507-.197-.985-.563-1.323L8.883 1.269zM8.77 3.098l1.857 1.745H9.192a.433.433 0 0 1-.422-.423V3.1zm1.379 12.58H3.394a1.562 1.562 0 0 1-1.548-1.548V3.718c0-.845.704-1.548 1.548-1.548h3.969V4.42c0 1.014.816 1.83 1.83 1.83h2.504v7.88c0 .845-.704 1.548-1.548 1.548zM2.941 8.125c0 .393.317.707.707.707h6.247a.703.703 0 0 0 .707-.707.705.705 0 0 0-.707-.707H3.648a.703.703 0 0 0-.707.707zm0 2.602c0 .393.317.707.707.707h6.247a.703.703 0 0 0 .707-.707.705.705 0 0 0-.707-.707H3.648a.703.703 0 0 0-.707.707zm0 2.602c0 .393.317.707.707.707h6.247a.703.703 0 0 0 .707-.707.705.705 0 0 0-.707-.707H3.648a.703.703 0 0 0-.707.707zm0-7.806c0 .393.315.707.702.707h1.76a.705.705 0 0 0 .702-.707.703.703 0 0 0-.702-.707h-1.76a.705.705 0 0 0-.702.707z"/>
</svg>
