<svg xmlns="http://www.w3.org/2000/svg" width="16" height="16" viewBox="0 0 16 16">
    <path fill="#414042" fill-rule="nonzero" d="M2.067.073c-.724 0-1.324.6-1.324 1.325v12.38c0 .724.6 1.325 1.324 1.325h6.72c.723 0 1.324-.6 1.324-1.325v-2.027a.568.568 0 1 0-1.136 0v2.027c0 .115-.074.19-.189.19H2.067c-.114 0-.189-.075-.189-.19V1.398c0-.115.075-.19.19-.19h6.718c.115 0 .19.075.19.19v2.027a.568.568 0 1 0 1.135 0V1.398c0-.724-.6-1.325-1.325-1.325H2.067zm9.97 4.079a.568.568 0 0 0 .096.58L14.02 7.02H4.886a.568.568 0 1 0 .06 1.136h9.073l-1.886 2.288a.568.568 0 1 0 .875.721l2.65-3.216a.568.568 0 0 0 0-.722l-2.65-3.217a.568.568 0 0 0-.971.142z"/>
</svg>
