<?xml version="1.0" encoding="UTF-8"?>
<svg width="17px" height="16px" viewBox="0 0 17 16" version="1.1" xmlns="http://www.w3.org/2000/svg" xmlns:xlink="http://www.w3.org/1999/xlink">
    <!-- Generator: sketchtool 42 (36781) - http://www.bohemiancoding.com/sketch -->
    <title>6BDAAC39-9A51-42B9-A7E0-858FA7078553</title>
    <desc>Created with sketchtool.</desc>
    <defs></defs>
    <g id="Page-1" stroke="none" stroke-width="1" fill="none" fill-rule="evenodd">
        <g id="Mobile_ЛК" transform="translate(-54.000000, -307.000000)">
            <g id="Group-3" transform="translate(54.000000, 307.442342)">
                <path d="M8.65,3.8242743 L8.65,8.01887244" id="Line" stroke="#3F419A" stroke-width="1.3" stroke-linecap="round" stroke-linejoin="round"></path>
                <path d="M12.2826286,10.0802977 L8.65,7.98299864" id="Line" stroke="#3F419A" stroke-width="1.3" stroke-linecap="round" stroke-linejoin="round"></path>
                <path d="M8.93637075,14.7263349 C12.802364,14.7263349 15.9363708,11.5923282 15.9363708,7.72633494 C15.9363708,3.8603417 12.802364,0.726334945 8.93637075,0.726334945 C5.0703775,0.726334945 1.93637075,3.8603417 1.93637075,7.72633494 C1.93637075,9.01796746 2.28619965,10.2278931 2.89627761,11.2665319" id="Oval-5" stroke="#3F419A" stroke-width="1.3" stroke-linecap="round"></path>
                <path d="M2.76262851,10.1276835 C2.90476058,9.88943943 3.13637318,9.8885522 3.28028902,10.1262622 L4.8149932,12.6611785 C4.95875713,12.8986376 4.85554934,13.0917396 4.57411652,13.0925123 L1.48917615,13.1009822 C1.21237969,13.1017421 1.10306246,12.909475 1.24534471,12.6709791 L2.76262851,10.1276835 Z" id="Triangle" fill="#3F419A" transform="translate(3.030321, 11.650390) rotate(-204.000000) translate(-3.030321, -11.650390) "></path>
            </g>
        </g>
    </g>
</svg>