<?xml version="1.0" encoding="utf-8"?>
<!-- Generator: Adobe Illustrator 19.0.0, SVG Export Plug-In . SVG Version: 6.00 Build 0)  -->
<svg version="1.1" id="Layer_1" xmlns="http://www.w3.org/2000/svg" xmlns:xlink="http://www.w3.org/1999/xlink" x="0px" y="0px"
	 viewBox="0 0 40 40" style="enable-background:new 0 0 40 40;" xml:space="preserve">
<g id="Page-1">
	<g id="Desktop-HD-Copy-4" transform="translate(-652.000000, -62.000000)">
		<path id="Combined-Shape" d="M672,65.6c5.3,0,6,0,8.1,0.1c2,0.1,3,0.4,3.7,0.7c0.9,0.4,1.6,0.8,2.3,1.5c0.7,0.7,1.1,1.4,1.5,2.3
			c0.3,0.7,0.6,1.8,0.7,3.7c0.1,2.1,0.1,2.7,0.1,8.1s0,6-0.1,8.1c-0.1,1.9-0.4,3-0.7,3.7c-0.4,0.9-0.8,1.6-1.5,2.3
			c-0.7,0.7-1.4,1.1-2.3,1.5c-0.7,0.3-1.8,0.6-3.7,0.7c-2.1,0.1-2.7,0.1-8.1,0.1c-5.3,0-6,0-8.1-0.1c-2-0.1-3-0.4-3.7-0.7
			c-0.9-0.4-1.6-0.8-2.3-1.5c-0.7-0.7-1.1-1.4-1.5-2.3c-0.3-0.7-0.6-1.8-0.7-3.7c-0.1-2.1-0.1-2.7-0.1-8.1s0-6,0.1-8.1
			c0.1-1.9,0.4-3,0.7-3.7c0.4-0.9,0.8-1.6,1.5-2.3c0.7-0.7,1.4-1.1,2.3-1.5c0.7-0.3,1.8-0.6,3.7-0.7C666,65.6,666.7,65.6,672,65.6
			 M672,62c-5.4,0-6.1,0-8.2,0.1c-2.1,0.1-3.6,0.4-4.9,0.9c-1.3,0.5-2.4,1.2-3.5,2.3c-1.1,1.1-1.8,2.2-2.3,3.5
			c-0.5,1.3-0.8,2.7-0.9,4.9c-0.1,2.1-0.1,2.8-0.1,8.2c0,5.4,0,6.1,0.1,8.2c0.1,2.1,0.4,3.6,0.9,4.9c0.5,1.3,1.2,2.4,2.3,3.5
			c1.1,1.1,2.2,1.8,3.5,2.3c1.3,0.5,2.7,0.8,4.9,0.9c2.1,0.1,2.8,0.1,8.2,0.1c5.4,0,6.1,0,8.2-0.1c2.1-0.1,3.6-0.4,4.9-0.9
			c1.3-0.5,2.4-1.2,3.5-2.3c1.1-1.1,1.8-2.2,2.3-3.5c0.5-1.3,0.8-2.7,0.9-4.9c0.1-2.1,0.1-2.8,0.1-8.2c0-5.4,0-6.1-0.1-8.2
			c-0.1-2.1-0.4-3.6-0.9-4.9c-0.5-1.3-1.2-2.4-2.3-3.5c-1.1-1.1-2.2-1.8-3.5-2.3c-1.3-0.5-2.7-0.8-4.9-0.9C678.1,62,677.4,62,672,62
			z M672,71.7c-5.7,0-10.3,4.6-10.3,10.3s4.6,10.3,10.3,10.3c5.7,0,10.3-4.6,10.3-10.3S677.7,71.7,672,71.7z M672,88.7
			c-3.7,0-6.7-3-6.7-6.7c0-3.7,3-6.7,6.7-6.7c3.7,0,6.7,3,6.7,6.7C678.7,85.7,675.7,88.7,672,88.7z M685.1,71.3
			c0,1.3-1.1,2.4-2.4,2.4c-1.3,0-2.4-1.1-2.4-2.4s1.1-2.4,2.4-2.4C684,68.9,685.1,70,685.1,71.3z"/>
	</g>
</g>
</svg>
