<svg xmlns="http://www.w3.org/2000/svg" width="12" height="15" viewBox="0 0 12 15">
    <path fill="#FFF" fill-rule="nonzero" d="M10.058 5.423H8.903V3.378a3.138 3.138 0 0 0-6.275 0v2.06H1.472c-.796 0-1.436.64-1.436 1.437v5.978c0 .796.64 1.436 1.436 1.436h8.57c.796 0 1.436-.64 1.436-1.436V6.875a1.423 1.423 0 0 0-1.42-1.452zM3.705 3.378c0-1.14.92-2.06 2.06-2.06 1.14 0 2.06.92 2.06 2.06v2.06h-4.12v-2.06zm6.712 9.475a.353.353 0 0 1-.36.36H1.473a.353.353 0 0 1-.359-.36V6.875c0-.203.156-.36.36-.36h8.554c.203 0 .359.157.359.36v5.978h.03zM5.765 7.374c-.827 0-1.514.671-1.514 1.514 0 .64.406 1.202.968 1.42v1.5c0 .296.234.546.546.546a.534.534 0 0 0 .546-.547V10.31a1.519 1.519 0 0 0-.546-2.935zm0 1.077a.436.436 0 1 1 0 .874.436.436 0 0 1-.437-.437c0-.234.203-.437.437-.437z"/>
</svg>
