<svg xmlns="http://www.w3.org/2000/svg" width="14" height="18" viewBox="0 0 14 18">
    <g fill="#414042" fill-rule="evenodd">
        <path fill-rule="nonzero" d="M3.673.912c-.416 0-.653.4-.602.704l.019.108H1.846A1.23 1.23 0 0 0 .628 2.942v13.4a1.23 1.23 0 0 0 1.218 1.218h10.152a1.23 1.23 0 0 0 1.218-1.218v-13.4a1.23 1.23 0 0 0-1.218-1.218h-1.244l.02-.108c.054-.347-.252-.705-.604-.704H3.674zm.724 1.218h5.05l-.203 1.218H4.6L4.397 2.13zm-2.55.812h1.446l.184 1.11a.63.63 0 0 0 .603.514h5.684a.63.63 0 0 0 .603-.514l.184-1.11h1.447v13.4H1.846v-13.4z"/>
        <rect width="7.592" height="1" x="3.126" y="5.885" rx=".5"/>
        <rect width="7.592" height="1" x="3.126" y="7.9" rx=".5"/>
        <rect width="7.592" height="1" x="3.126" y="9.916" rx=".5"/>
        <rect width="7.592" height="1" x="3.126" y="11.931" rx=".5"/>
        <rect width="7.592" height="1" x="3.126" y="13.947" rx=".5"/>
    </g>
</svg>
