<svg xmlns="http://www.w3.org/2000/svg" width="26" height="33" viewBox="0 0 26 33">
    <g fill="none" fill-rule="evenodd">
        <path fill="#CE2129" fill-rule="nonzero" d="M13 .028C6.372.028.979 5.42.979 12.048c0 8.572 10.286 19.718 10.724 20.188a1.768 1.768 0 0 0 2.593 0c.439-.47 10.725-11.616 10.725-20.188C25.021 5.42 19.628.028 13 .028z"/>
        <g fill="#FFF">
            <path d="M7.5 12.474v4.486c0 1.086 1.225 1.72 2.113 1.094l3.05-2.153a1.34 1.34 0 0 0 .041-2.159l-3.05-2.333c-.882-.674-2.154-.045-2.154 1.065"/>
            <path d="M18.304 8.878c0-.68-.513-1.339-1.17-1.412a3.34 3.34 0 0 0-.325-.033H8.693c-.657 0-1.19.641-1.19 1.299 0 .657.49 1.299 1.147 1.299h6.598c.19 0 .343.105.343.295v6.643c0 .645.55 1.269 1.123 1.362.64.104 1.355-.21 1.538-.877.043-.156.049-.326.05-.49.003-1.27.002-2.804.002-4.074V8.878"/>
        </g>
    </g>
</svg>
