<?xml version="1.0" encoding="utf-8"?>
<!-- Generator: Adobe Illustrator 21.0.2, SVG Export Plug-In . SVG Version: 6.00 Build 0)  -->
<svg version="1.1" id="menu" xmlns="http://www.w3.org/2000/svg" xmlns:xlink="http://www.w3.org/1999/xlink" x="0px" y="0px"
	 viewBox="0 0 37 12" style="enable-background:new 0 0 37 12;" xml:space="preserve">
<style type="text/css">
	.st0{fill:#3F419A;}
</style>
<path class="st0" d="M36,2H1C0.4,2,0,1.6,0,1s0.4-1,1-1h35c0.6,0,1,0.4,1,1S36.6,2,36,2z"/>
<path class="st0" d="M36,7H1C0.4,7,0,6.6,0,6s0.4-1,1-1h35c0.6,0,1,0.4,1,1S36.6,7,36,7z"/>
<path class="st0" d="M36,12H1c-0.6,0-1-0.4-1-1s0.4-1,1-1h35c0.6,0,1,0.4,1,1S36.6,12,36,12z"/>
</svg>
