<?xml version="1.0" encoding="utf-8"?>
<!-- Generator: Adobe Illustrator 21.0.2, SVG Export Plug-In . SVG Version: 6.00 Build 0)  -->
<svg version="1.1" id="Layer_1" xmlns="http://www.w3.org/2000/svg" xmlns:xlink="http://www.w3.org/1999/xlink" x="0px" y="0px"
	 width="66px" height="66px" viewBox="0 0 66 66" style="enable-background:new 0 0 66 66;" xml:space="preserve">
<path style="fill:#3F419A;" d="M65,33c0,17.6-14.4,32-32,32S1,50.6,1,33S15.4,1,33,1S65,15.4,65,33z M17.1,31.7V45
	c0,3.2,3.6,5,6.2,3.2l9-6.4c1.7-1.3,2.2-3.7,1-5.5c-0.2-0.3-0.5-0.6-0.9-0.9l-9-6.9C20.8,26.6,17.1,28.4,17.1,31.7z M48.9,21.2
	c0-2-1.6-4-3.5-4.2c-0.3-0.1-1-0.1-1-0.1H20.6c-1.9,0-3.5,1.9-3.5,3.9s1.5,3.9,3.4,3.9H40c0.6,0,1,0.3,1,0.9v19.6
	c0,1.9,1.6,3.8,3.3,4c1.9,0.3,4-0.6,4.6-2.6c0.1-0.5,0.1-1,0.2-1.5c0-3.8,0-8.2,0-12C48.9,33,48.9,21.2,48.9,21.2z"/>
</svg>
