<?xml version="1.0" encoding="utf-8"?>
<!-- Generator: Adobe Illustrator 21.0.2, SVG Export Plug-In . SVG Version: 6.00 Build 0)  -->
<svg version="1.1" id="Layer_1" xmlns="http://www.w3.org/2000/svg" xmlns:xlink="http://www.w3.org/1999/xlink" x="0px" y="0px"
	 viewBox="0 0 12 12" style="enable-background:new 0 0 12 12;" xml:space="preserve">
<style type="text/css">
	.st0{fill:#414042;}
</style>
<g>
	<path class="st0" d="M8.1,11.8c-0.9,0-1.6-0.7-1.6-1.6v0c0-0.9,0.7-1.6,1.6-1.6c0.9,0,1.6,0.7,1.6,1.6C9.7,11.1,9,11.8,8.1,11.8z
		 M7.5,10.3c0,0.3,0.3,0.6,0.6,0.6c0.3,0,0.6-0.3,0.6-0.6c0-0.3-0.3-0.6-0.6-0.6C7.8,9.7,7.5,10,7.5,10.3z M1.5,11.4
		c-0.2,0-0.3,0-0.5-0.1h0l-0.1-0.1c0,0,0,0,0,0L0.8,11c-0.1-0.2-0.2-0.4-0.2-0.6S0.6,10,0.8,9.9L1,9.7l8.8-8.8
		c0.2-0.2,0.4-0.3,0.7-0.3h0c0.2,0,0.5,0.1,0.7,0.3c0.2,0.2,0.3,0.4,0.3,0.7s-0.1,0.5-0.3,0.7l-9,9C2,11.3,1.7,11.4,1.5,11.4z
		 M3.8,3.3C3,3.3,2.3,2.6,2.3,1.7c0-0.9,0.7-1.6,1.6-1.6c0.9,0,1.6,0.7,1.6,1.6C5.4,2.6,4.7,3.3,3.8,3.3z M3.8,1.2
		c-0.3,0-0.6,0.3-0.6,0.6c0,0.3,0.3,0.6,0.6,0.6c0.3,0,0.6-0.3,0.6-0.6C4.4,1.4,4.2,1.2,3.8,1.2z"/>
</g>
</svg>
