<?xml version="1.0" encoding="utf-8"?>
<!-- Generator: Adobe Illustrator 21.0.2, SVG Export Plug-In . SVG Version: 6.00 Build 0)  -->
<svg version="1.1" id="Layer_1" xmlns="http://www.w3.org/2000/svg" xmlns:xlink="http://www.w3.org/1999/xlink" x="0px" y="0px"
	 width="30.8px" height="30.8px" viewBox="0 0 30.8 30.8" style="enable-background:new 0 0 30.8 30.8;" xml:space="preserve">
<path style="fill:#3F419A;" d="M15.4,0C6.9,0,0,6.9,0,15.4s6.9,15.4,15.4,15.4s15.4-6.9,15.4-15.4S23.9,0,15.4,0z M12.9,8.4
	C12.9,8.4,12.9,8.4,12.9,8.4L12.9,8.4C12.9,8.4,12.9,8.4,12.9,8.4c0.8,0,1.4,0.6,1.4,1.4c0,0.8-0.6,1.4-1.4,1.4
	c-0.8,0-1.4-0.6-1.4-1.4C11.5,9,12.1,8.4,12.9,8.4z M18.5,22.3c-0.8,0-1.4-0.6-1.4-1.4c0-0.8,0.6-1.4,1.4-1.4c0.8,0,1.4,0.6,1.4,1.4
	C19.9,21.7,19.2,22.3,18.5,22.3z M22,9.9L22,9.9L10.3,21.6c-0.2,0.2-0.6,0.2-0.8,0c0,0,0,0,0,0c-0.2-0.2-0.2-0.6,0-0.8c0,0,0,0,0,0
	L21.2,9.1c0.2-0.2,0.6-0.2,0.8,0C22.2,9.3,22.2,9.6,22,9.9z"/>
</svg>
