<?xml version="1.0" encoding="utf-8"?>
<!-- Generator: Adobe Illustrator 21.0.2, SVG Export Plug-In . SVG Version: 6.00 Build 0)  -->
<svg version="1.1" id="Layer_1" xmlns="http://www.w3.org/2000/svg" xmlns:xlink="http://www.w3.org/1999/xlink" x="0px" y="0px"
	 width="43.4px" height="41.3px" viewBox="0 0 43.4 41.3" style="enable-background:new 0 0 43.4 41.3;" xml:space="preserve">
<path id="triangle" style="fill:#3F419A;" d="M39.4,0H0l43.4,41.3V4C43.4,1.8,41.6,0,39.4,0z"/>
<rect x="20.9" y="3.3" style="fill:none;" width="25.4" height="21.3"/>
<text transform="matrix(1 0 0 1 20.9402 19.3516)" style="display:none;fill:#FFFFFF; font-family:'PFBeauSansPro-Bold'; font-size:22px;">%</text>
<g id="percent">
	<path style="fill:#FFFFFF;" d="M29.3,10.4c0,0.6-0.1,1.1-0.2,1.6c-0.2,0.5-0.4,0.9-0.7,1.3c-0.3,0.4-0.7,0.6-1.1,0.8
		c-0.5,0.2-1,0.3-1.6,0.3c-1.2,0-2.1-0.4-2.7-1.1c-0.6-0.7-0.9-1.7-0.9-2.9c0-0.6,0.1-1.2,0.2-1.7c0.2-0.5,0.4-0.9,0.7-1.3
		c0.3-0.4,0.7-0.6,1.1-0.8c0.5-0.2,1-0.3,1.6-0.3c1.2,0,2.2,0.4,2.7,1.1C29,8.2,29.3,9.2,29.3,10.4z M27.1,10.4
		c0-0.7-0.1-1.2-0.3-1.6c-0.2-0.4-0.6-0.7-1.1-0.7c-0.5,0-0.9,0.2-1.1,0.6c-0.2,0.4-0.3,1-0.3,1.6c0,0.3,0,0.6,0.1,0.9
		c0.1,0.3,0.1,0.5,0.2,0.7c0.1,0.2,0.3,0.4,0.4,0.5c0.2,0.1,0.4,0.2,0.7,0.2c0.5,0,0.9-0.2,1.1-0.6C27,11.6,27.1,11,27.1,10.4z
		 M27.6,19.7c-0.1,0.1-0.1,0.2-0.2,0.3C27.3,20,27.1,20,27,20h-1c-0.1,0-0.2,0-0.3-0.1c0-0.1,0-0.2,0-0.3l7.9-13.5
		c0.1-0.1,0.1-0.2,0.2-0.2c0.1,0,0.1-0.1,0.3-0.1h1.1c0.1,0,0.2,0,0.2,0.1c0,0.1,0,0.2,0,0.3L27.6,19.7z M39.2,15.5
		c0,0.6-0.1,1.1-0.2,1.6c-0.2,0.5-0.4,0.9-0.7,1.3c-0.3,0.4-0.7,0.6-1.1,0.8c-0.5,0.2-1,0.3-1.6,0.3c-1.2,0-2.1-0.4-2.7-1.1
		c-0.6-0.7-0.9-1.7-0.9-2.9c0-0.6,0.1-1.2,0.2-1.7c0.2-0.5,0.4-0.9,0.7-1.3c0.3-0.4,0.7-0.6,1.1-0.8c0.5-0.2,1-0.3,1.6-0.3
		c1.2,0,2.2,0.4,2.7,1.1C38.9,13.3,39.2,14.3,39.2,15.5z M37,15.5c0-0.7-0.1-1.2-0.3-1.6c-0.2-0.4-0.6-0.7-1.1-0.7
		c-0.5,0-0.9,0.2-1.1,0.6c-0.2,0.4-0.3,1-0.3,1.6c0,0.3,0,0.6,0.1,0.9c0.1,0.3,0.1,0.5,0.2,0.7c0.1,0.2,0.3,0.4,0.4,0.5
		c0.2,0.1,0.4,0.2,0.7,0.2c0.5,0,0.9-0.2,1.1-0.6C36.9,16.7,37,16.2,37,15.5z"/>
</g>
</svg>
