<svg xmlns="http://www.w3.org/2000/svg" width="34" height="34" viewBox="0 0 34 34">
    <path fill="#3f419a" fill-rule="nonzero" d="M32.514 16.545c-.008-1.46 1.803-2.755 1.384-4.153-.488-1.628-2.829-2.055-3.686-3.522-.736-1.26.184-3.288-.878-4.29-1.237-1.165-3.477-.365-4.954-1.206-1.267-.724-1.485-2.94-2.904-3.276-1.655-.39-3.194 1.423-4.894 1.43-1.459.009-2.755-1.802-4.153-1.383-1.628.489-2.055 2.828-3.523 3.686-1.26.736-3.287-.183-4.288.878-1.166 1.236-.366 3.476-1.208 4.953C2.687 10.93.471 11.147.135 12.567c-.39 1.654 1.422 3.194 1.43 4.893.008 1.459-1.802 2.755-1.383 4.153.488 1.627 2.828 2.055 3.686 3.523.735 1.26-.184 3.287.878 4.288 1.237 1.165 3.477.365 4.953 1.208 1.268.723 1.485 2.939 2.905 3.274 1.654.392 3.194-1.421 4.893-1.43 1.46-.007 2.756 1.803 4.153 1.384 1.629-.489 2.056-2.829 3.523-3.686 1.26-.736 3.288.184 4.289-.878 1.165-1.237.365-3.477 1.208-4.953.723-1.268 2.938-1.485 3.275-2.905.391-1.653-1.422-3.193-1.43-4.893zm-17.98-6.502c.767 0 1.393.625 1.393 1.392 0 .767-.626 1.392-1.392 1.392a1.395 1.395 0 0 1-1.392-1.392c0-.766.625-1.392 1.392-1.392zm4.177 12.528c0-.767.625-1.392 1.392-1.392.766 0 1.392.625 1.392 1.392 0 .767-.626 1.392-1.392 1.392a1.395 1.395 0 0 1-1.392-1.392zm4.894-11.095L11.88 23.203a.555.555 0 0 1-.788 0 .556.556 0 0 1 0-.787l11.727-11.727a.556.556 0 1 1 .787.787z"/>
</svg>
