<svg xmlns="http://www.w3.org/2000/svg" width="34" height="35" viewBox="0 0 34 35">
    <path fill="#3f419a" fill-rule="nonzero" d="M15.254 23.805a.558.558 0 0 0 .485-.278l8.082-8.822a.556.556 0 1 0-.965-.557l-7.548 8.24-4.164-5.7a.556.556 0 1 0-.965.556l4.59 6.283a.555.555 0 0 0 .485.278zm17.22-6.425c.01 1.7 1.822 3.24 1.43 4.893-.336 1.42-2.551 1.637-3.274 2.904-.843 1.477-.043 3.717-1.208 4.954-1.001 1.062-3.029.142-4.289.878-1.467.857-1.894 3.197-3.522 3.685-1.398.42-2.694-1.39-4.154-1.383-1.699.009-3.239 1.821-4.893 1.43-1.42-.336-1.637-2.552-2.905-3.274-1.476-.843-3.716-.043-4.953-1.209-1.062-1-.143-3.028-.878-4.288C2.97 24.503.63 24.075.142 22.447c-.42-1.397 1.391-2.693 1.384-4.152-.009-1.7-1.822-3.24-1.43-4.893.335-1.42 2.551-1.639 3.274-2.905.842-1.477.042-3.717 1.208-4.954 1.001-1.06 3.028-.142 4.288-.878 1.468-.857 1.895-3.197 3.523-3.685 1.398-.42 2.694 1.391 4.153 1.384 1.7-.009 3.24-1.822 4.894-1.43 1.42.335 1.637 2.551 2.905 3.274 1.476.842 3.716.042 4.953 1.207 1.062 1.002.142 3.03.878 4.29.857 1.467 3.198 1.894 3.686 3.522.419 1.397-1.391 2.694-1.384 4.153z"/>
</svg>
