<svg xmlns="http://www.w3.org/2000/svg" width="30" height="30" viewBox="0 0 30 30">
    <path fill="#3f419a" fill-rule="nonzero" d="M14.8 6.362c-4.795 0-8.695 3.898-8.695 8.694 0 4.79 3.9 8.695 8.695 8.695 4.797 0 8.696-3.905 8.696-8.695 0-4.796-3.899-8.694-8.696-8.694zm13.956 9.888c.416.566.567 1.29.416 1.976a2.464 2.464 0 0 1-1.206 1.62l-.777.435a.979.979 0 0 0-.488 1.037l.163.873a2.453 2.453 0 0 1-2.272 2.892l-.892.054a.981.981 0 0 0-.892.717l-.235.862a2.457 2.457 0 0 1-2.367 1.808 2.51 2.51 0 0 1-.935-.187L18.446 28a.997.997 0 0 0-1.115.266l-.584.675a2.466 2.466 0 0 1-1.856.843 2.466 2.466 0 0 1-1.827-.82l-.597-.662a.992.992 0 0 0-1.115-.247l-.818.35a2.468 2.468 0 0 1-3.332-1.573l-.248-.856a.973.973 0 0 0-.897-.705l-.893-.036a2.462 2.462 0 0 1-1.8-.91 2.478 2.478 0 0 1-.513-1.952l.15-.88a.978.978 0 0 0-.505-1.024l-.784-.422a2.453 2.453 0 0 1-1.23-1.602A2.465 2.465 0 0 1 .87 16.46l.512-.73a.976.976 0 0 0-.006-1.144l-.524-.717c-.416-.566-.567-1.29-.416-1.976.15-.687.59-1.278 1.205-1.621l.777-.434a.98.98 0 0 0 .488-1.036l-.163-.874a2.463 2.463 0 0 1 .483-1.959 2.442 2.442 0 0 1 1.79-.934l.886-.054a.978.978 0 0 0 .891-.717l.235-.861a2.459 2.459 0 0 1 2.369-1.808c.32 0 .632.066.933.187l.826.337a.996.996 0 0 0 1.115-.265l.578-.675a2.469 2.469 0 0 1 1.857-.844 2.46 2.46 0 0 1 1.824.82l.597.663a.99.99 0 0 0 1.114.246l.82-.349a2.468 2.468 0 0 1 3.333 1.572l.258.85a.974.974 0 0 0 .898.706l.893.036c.698.03 1.355.361 1.801.91.44.548.626 1.259.512 1.952l-.15.88a.98.98 0 0 0 .505 1.024l.784.422a2.453 2.453 0 0 1 1.23 1.602c.162.687.017 1.41-.386 1.983l-.512.73a.976.976 0 0 0 .005 1.144l.525.723zM14.8 22.275c-3.976 0-7.218-3.235-7.218-7.219 0-3.976 3.236-7.218 7.218-7.218 3.983 0 7.22 3.242 7.22 7.218 0 3.978-3.242 7.22-7.22 7.22zm12.931-4.368c.061-.278 0-.56-.143-.789l-.524-.716a2.452 2.452 0 0 1-.024-2.869l.512-.73a.962.962 0 0 0 .15-.789.96.96 0 0 0-.494-.638l-.783-.422a2.452 2.452 0 0 1-1.266-2.573l.151-.88a.96.96 0 0 0-.205-.777.971.971 0 0 0-.723-.361l-.892-.037a2.463 2.463 0 0 1-2.254-1.77l-.247-.857a.982.982 0 0 0-1.325-.626l-.82.349a2.466 2.466 0 0 1-2.802-.62l-.597-.663a.96.96 0 0 0-.728-.326c-.29 0-.555.12-.742.338l-.584.668a2.466 2.466 0 0 1-1.856.844 2.5 2.5 0 0 1-.934-.187l-.826-.337a.98.98 0 0 0-1.32.651l-.234.861a2.459 2.459 0 0 1-2.23 1.803l-.886.054a.973.973 0 0 0-.717.373.963.963 0 0 0-.192.783l.156.868a2.452 2.452 0 0 1-1.223 2.591l-.777.434a.974.974 0 0 0-.482.645.948.948 0 0 0 .162.789l.525.717a2.45 2.45 0 0 1 .024 2.868l-.513.729a.945.945 0 0 0-.156.789.964.964 0 0 0 .494.64l.783.42a2.45 2.45 0 0 1 1.265 2.574l-.15.88a.96.96 0 0 0 .205.776.95.95 0 0 0 .717.362l.891.036a2.463 2.463 0 0 1 2.255 1.772l.247.855a.983.983 0 0 0 1.325.627l.82-.35a2.465 2.465 0 0 1 2.802.62l.596.664c.187.211.446.325.73.325.288 0 .554-.12.74-.336l.585-.67a2.467 2.467 0 0 1 1.856-.844c.32 0 .632.067.934.187l.825.338a.98.98 0 0 0 1.32-.65l.235-.856a2.451 2.451 0 0 1 2.23-1.802l.885-.055a.972.972 0 0 0 .718-.373.963.963 0 0 0 .192-.784l-.163-.874a2.452 2.452 0 0 1 1.224-2.59l.777-.434a.974.974 0 0 0 .481-.645zM16.94 12.665l-3.23 3.211-1.049-1.055a.74.74 0 0 0-1.048 1.043l1.573 1.58a.739.739 0 0 0 1.042 0l3.754-3.731a.74.74 0 0 0 .007-1.042.748.748 0 0 0-1.05-.006z"/>
</svg>
