<?xml version="1.0" encoding="utf-8"?>
<!DOCTYPE svg PUBLIC "-//W3C//DTD SVG 1.1//EN" "http://www.w3.org/Graphics/SVG/1.1/DTD/svg11.dtd">
<svg version="1.1" xmlns="http://www.w3.org/2000/svg" xmlns:xlink="http://www.w3.org/1999/xlink" x="0px" y="0px" viewBox="0 0 100 100">

<symbol  id="Phone" viewBox="0 0 24 30" fill="#000000"><title>Phone</title>
	<path d="M14.7,24v1.4c0,0,0,0-0.1,0H3.1c0,0,0,0-0.1,0V4.6c0,0,0,0,0.1,0h11.6c0,0,0,0,0.1,0V6
		c0.4-0.1,0.9-0.1,1.4-0.1c0.5,0,1.1,0,1.6,0.1V4.3v-1c0-1.8-1.5-3.4-3.3-3.4H3.3C1.5,0,0,1.5,0,3.4v1V26v0.6C0,28.5,1.5,30,3.3,30
		h11.1c1.8,0,3.3-1.5,3.3-3.4V26V24c-0.5,0.1-1.1,0.1-1.6,0.1C15.6,24.1,15.2,24.1,14.7,24z M10.3,28.6H7.1c-0.5,0-0.8-0.4-0.8-0.9
		c0-0.5,0.4-0.9,0.8-0.9h3.1c0.5,0,0.8,0.4,0.8,0.9C11.1,28.2,10.7,28.6,10.3,28.6z"/>
	<path d="M16.1,7.9C11.6,7.9,8,11.1,8,15c0,1.7,0.7,3.2,1.8,4.5c-0.2,0.6-0.6,1.2-1.3,1.7c-0.2,0.1-0.1,0.4,0.1,0.4
		c0.7,0.1,2,0.1,3.1-0.6c1.3,0.7,2.8,1.1,4.4,1.1c4.5,0,8.1-3.2,8.1-7.1S20.5,7.9,16.1,7.9z M15.9,11.1c0.5,0,0.9,0.4,0.9,0.9
		c0,0.5-0.4,0.9-0.9,0.9S15,12.5,15,12S15.5,11.1,15.9,11.1z M17.3,18.5h-0.5h-1.6h-0.5v-1.2h0.5v-2.4h-0.4v-1.2h0.4h1.3h0.2v3.7
		h0.5L17.3,18.5L17.3,18.5z"/>
</symbol>

<symbol id="clock-circular-outline" viewBox="0 0 98 98"><title>clock</title>
	<path d="M48.58,0C21.793,0,0,21.793,0,48.58s21.793,48.58,48.58,48.58s48.58-21.793,48.58-48.58S75.367,0,48.58,0z M48.58,86.823 c-21.087,0-38.244-17.155-38.244-38.243S27.493,10.337,48.58,10.337S86.824,27.492,86.824,48.58S69.667,86.823,48.58,86.823z"/><path d="M73.898,47.08H52.066V20.83c0-2.209-1.791-4-4-4c-2.209,0-4,1.791-4,4v30.25c0,2.209,1.791,4,4,4h25.832 c2.209,0,4-1.791,4-4S76.107,47.08,73.898,47.08z"/>
</symbol>

<symbol id="next" viewBox="0 0 6 11"><title>Next</title>
    <path fill="#414042" fill-rule="evenodd" d="M6 5.199a.39.39 0 0 1-.117.296c-.019.018-.046.013-.067.026l-5.117 4.56a.418.418 0 0 1-.579 0 .39.39 0 0 1 0-.562l4.851-4.322L.12.875a.39.39 0 0 1 0-.561.418.418 0 0 1 .578 0l5.116 4.558c.022.014.05.009.07.027A.386.386 0 0 1 6 5.2z"/>
</symbol>

<symbol id="prev" viewBox="0 0 6 11"><title>Prev</title>
    <path fill="#414042" fill-rule="evenodd" d="M0 5.196A.39.39 0 0 1 .117 4.9c.019-.018.046-.013.067-.026L5.301.314a.418.418 0 0 1 .579 0 .39.39 0 0 1 0 .562L1.029 5.198 5.88 9.52a.39.39 0 0 1 0 .562.418.418 0 0 1-.578 0L.186 5.524c-.022-.015-.05-.01-.07-.028a.386.386 0 0 1-.116-.3z"/>
</symbol>

<symbol id="search" viewBox="0 0 57 57"><title>search</title>
	<path d="M55.146,51.887L41.588,37.786c3.486-4.144,5.396-9.358,5.396-14.786c0-12.682-10.318-23-23-23s-23,10.318-23,23 s10.318,23,23,23c4.761,0,9.298-1.436,13.177-4.162l13.661,14.208c0.571,0.593,1.339,0.92,2.162,0.92 c0.779,0,1.518-0.297,2.079-0.837C56.255,54.982,56.293,53.08,55.146,51.887z M23.984,6c9.374,0,17,7.626,17,17s-7.626,17-17,17 s-17-7.626-17-17S14.61,6,23.984,6z"/>
</symbol>

<symbol id="cart" viewBox="0 0 44 44">
	<polygon points="19.3,26.9 26.5,26.9 28.5,20 17.5,20 	"/>
	<path fill="#414042" d="M22,0C9.8,0,0,9.8,0,22c0,12.2,9.8,22,22,22s22-9.8,22-22C44,9.8,34.2,0,22,0z M19.4,31.5
		c-0.6,0-1.2-0.5-1.2-1.2c0-0.6,0.5-1.2,1.2-1.2s1.2,0.5,1.2,1.2C20.6,31,20.1,31.5,19.4,31.5z M25.2,31.5c-0.6,0-1.2-0.5-1.2-1.2
		c0-0.6,0.5-1.2,1.2-1.2s1.2,0.5,1.2,1.2C26.3,31,25.8,31.5,25.2,31.5z M29.8,19.5l-2.3,7.9c0,0,0,0.1,0,0.1c0,0.3-0.2,0.5-0.5,0.6
		c0,0-0.1,0-0.1,0h-8.1c0,0,0,0,0,0c-0.3,0-0.5-0.2-0.6-0.4l-2.1-7.9C16,19.7,16,19.5,16,19.4c0,0,0-0.1,0-0.1l-1-3.9h-3
		c-0.3,0-0.6-0.3-0.6-0.6c0-0.3,0.3-0.6,0.6-0.6h3.5c0,0,0,0,0,0c0.3,0,0.5,0.2,0.6,0.4l1.1,4.2h12.1l0,0c0.1,0,0.1,0,0.2,0
		c0,0,0,0,0,0c0.1,0,0.2,0.1,0.2,0.2c0,0,0.1,0.1,0.1,0.1c0,0.1,0.1,0.2,0.1,0.2C29.8,19.4,29.8,19.4,29.8,19.5L29.8,19.5
		C29.8,19.5,29.8,19.5,29.8,19.5z"/>
</symbol>

<symbol id="user" viewBox="0 0 44 44">
	<path d="M23.8,25.4v-1.7c1.5-0.9,2.4-3,2.4-4.8c0-2.5-0.7-4.5-4.1-4.5c-3.4,0-4.1,2-4.1,4.5c0,1.9,0.9,3.9,2.4,4.8v1.8
		C18.2,26,15.6,26.7,15,27c-0.4,0.5-0.7,1.9-0.5,2.8h15.3c0.1-1-0.2-2.5-0.6-2.9C28.6,26.6,26,25.9,23.8,25.4z"/>
	<path d="M22,0C9.8,0,0,9.8,0,22s9.8,22,22,22s22-9.8,22-22S34.2,0,22,0z M30.3,30.8H13.7c-0.9-1.3-0.5-4,0.4-4.8
		c0.4-0.4,3.7-1.2,5.3-1.6c-1.7-1.2-2.7-3.4-2.7-5.6c0-3.1,1-5.6,5.3-5.6s5.3,2.5,5.3,5.6c0,2.1-1,4.4-2.7,5.6
		c1.5,0.4,4.9,1.2,5.3,1.6C30.9,26.8,31.2,29.5,30.3,30.8z"/>
</symbol>

<symbol id="user2" viewBox="0 0 24 24">
    <path d="M23.32 23.157H1.537c-1.207-1.73-.718-5.193.49-6.347.575-.55 4.888-1.589 6.952-2.061-2.18-1.582-3.508-4.518-3.508-7.317 0-4.068 1.265-7.366 6.955-7.366s6.955 3.298 6.955 7.366c0 2.79-1.322 5.718-3.49 7.303 2.016.47 6.394 1.538 6.952 2.075 1.199 1.154 1.676 4.617.477 6.347zm-1.47-5.13c-.792-.397-4.2-1.29-7.105-1.942V13.8c1.937-1.232 3.084-3.908 3.084-6.34 0-3.289-.9-5.955-5.403-5.955-4.503 0-5.403 2.666-5.403 5.956 0 2.434 1.149 5.112 3.088 6.343v2.303c-2.92.642-6.31 1.52-7.09 1.92-.505.595-.946 2.5-.633 3.69h20.08c.31-1.19-.12-3.09-.618-3.689z"/>
</symbol>

<symbol id="log" viewBox="0 0 17 16">
	<path d="M12.3,11.2c-0.1,0-0.2,0-0.3-0.1l-3.4-2C8.2,9,8,8.8,8,8.5V4.3c0-0.4,0.3-0.6,0.6-0.6s0.6,0.3,0.6,0.6V8
		l3.3,1.9c0.3,0.2,0.4,0.6,0.2,0.9C12.7,11.1,12.5,11.2,12.3,11.2z"/>
	<path d="M8.9,0.5C4.7,0.5,1.3,4,1.3,8.2c0,1,0.2,2,0.6,2.9L1,11.4c-0.3,0.1-0.3,0.3,0,0.5l2.4,1.7
		c0.2,0.2,0.4,0.1,0.5-0.2l0.4-2.9c0-0.3-0.1-0.4-0.4-0.3L3,10.5C2.7,9.8,2.6,9,2.6,8.2c0-3.5,2.8-6.4,6.4-6.4c3.5,0,6.3,2.8,6.3,6.4
		s-2.8,6.4-6.3,6.4c-0.4,0-0.6,0.3-0.6,0.7s0.3,0.7,0.6,0.7c4.2,0,7.7-3.4,7.7-7.7S13.2,0.5,8.9,0.5z"/>
</symbol>

<symbol id="percent" viewBox="0 0 12 12">
	<path class="st0" d="M8.1,11.8c-0.9,0-1.6-0.7-1.6-1.6v0c0-0.9,0.7-1.6,1.6-1.6c0.9,0,1.6,0.7,1.6,1.6C9.7,11.1,9,11.8,8.1,11.8z
		 M7.5,10.3c0,0.3,0.3,0.6,0.6,0.6c0.3,0,0.6-0.3,0.6-0.6c0-0.3-0.3-0.6-0.6-0.6C7.8,9.7,7.5,10,7.5,10.3z M1.5,11.4
		c-0.2,0-0.3,0-0.5-0.1h0l-0.1-0.1c0,0,0,0,0,0L0.8,11c-0.1-0.2-0.2-0.4-0.2-0.6S0.6,10,0.8,9.9L1,9.7l8.8-8.8
		c0.2-0.2,0.4-0.3,0.7-0.3h0c0.2,0,0.5,0.1,0.7,0.3c0.2,0.2,0.3,0.4,0.3,0.7s-0.1,0.5-0.3,0.7l-9,9C2,11.3,1.7,11.4,1.5,11.4z
		 M3.8,3.3C3,3.3,2.3,2.6,2.3,1.7c0-0.9,0.7-1.6,1.6-1.6c0.9,0,1.6,0.7,1.6,1.6C5.4,2.6,4.7,3.3,3.8,3.3z M3.8,1.2
		c-0.3,0-0.6,0.3-0.6,0.6c0,0.3,0.3,0.6,0.6,0.6c0.3,0,0.6-0.3,0.6-0.6C4.4,1.4,4.2,1.2,3.8,1.2z"/>
</symbol>

<symbol id="chat" viewBox="0 0 17 17">
    <path d="M7.44 13.119l2.68 2.76a.787.787 0 0 0 .628.304.816.816 0 0 0 .69-.386c.04-.04.06-.101.081-.162l.71-2.536h1.664a3.04 3.04 0 0 0 3.043-3.044V3.36A3.04 3.04 0 0 0 13.893.316H3.95A3.04 3.04 0 0 0 .908 3.36v6.695A3.04 3.04 0 0 0 3.95 13.1h3.49v.02zm-5.315-3.044V3.38c0-1.015.812-1.826 1.826-1.826h9.942c1.014 0 1.826.811 1.826 1.826v6.695a1.818 1.818 0 0 1-1.826 1.827h-2.13a.627.627 0 0 0-.589.446l-.629 2.232-2.394-2.496a.597.597 0 0 0-.446-.182H3.95a1.818 1.818 0 0 1-1.826-1.827zm1.927-5.153h9.537a.598.598 0 0 0 .608-.609.598.598 0 0 0-.608-.608H4.052a.598.598 0 0 0-.608.608c0 .345.264.609.608.609zm0 2.435h9.537a.598.598 0 0 0 .608-.609.598.598 0 0 0-.608-.609H4.052a.598.598 0 0 0-.608.609c0 .345.264.609.608.609zm5.722 2.232a.598.598 0 0 0 .609-.61.598.598 0 0 0-.609-.608H4.052a.598.598 0 0 0-.608.609c0 .345.264.609.608.609h5.722z"/>
</symbol>

<symbol id="exit" viewBox="0 0 16 16">
    <path d="M2.067.073c-.724 0-1.324.6-1.324 1.325v12.38c0 .724.6 1.325 1.324 1.325h6.72c.723 0 1.324-.6 1.324-1.325v-2.027a.568.568 0 1 0-1.136 0v2.027c0 .115-.074.19-.189.19H2.067c-.114 0-.189-.075-.189-.19V1.398c0-.115.075-.19.19-.19h6.718c.115 0 .19.075.19.19v2.027a.568.568 0 1 0 1.135 0V1.398c0-.724-.6-1.325-1.325-1.325H2.067zm9.97 4.079a.568.568 0 0 0 .096.58L14.02 7.02H4.886a.568.568 0 1 0 .06 1.136h9.073l-1.886 2.288a.568.568 0 1 0 .875.721l2.65-3.216a.568.568 0 0 0 0-.722l-2.65-3.217a.568.568 0 0 0-.971.142z"/>
</symbol>


<symbol id="callback" viewBox="0 0 16 15">
  <path d="M7.209 9.953c.385.404.85.653 1.29.703.449.043.923-.106 1.448-.692.163-.181.341-.391.64-.492.3-.1.66-.038 1.044.168.73.555 1.484 1.117 2.203 1.688.343.342.43.794.32 1.148-.11.355-.347.623-.566.848-1.22 1.272-2.667 1.887-4.086 1.672-1.37-.238-2.698-1.198-4.168-2.668l-1.75-1.75C2.114 9.108 1.154 7.78.916 6.41c-.282-1.696.618-3.076 1.672-4.086.225-.22.493-.456.847-.567.355-.11.806-.022 1.149.32.57.72 1.133 1.473 1.687 2.204.207.383.269.743.168 1.043-.1.3-.31.478-.492.64-.586.525-.734 1-.691 1.45.05.439.3.904.703 1.289m-.5.5c-.473-.46-.846-1.049-.91-1.723-.065-.676.217-1.408.926-2.043.172-.155.266-.262.293-.34.025-.077.032-.188-.114-.465l-1.57-2.054c-.203-.203-.284-.197-.438-.149-.153.048-.365.207-.562.399-1.266 1.265-1.663 2.337-1.469 3.46.195 1.124 1.042 2.362 2.469 3.79l1.75 1.75c1.427 1.427 2.666 2.274 3.79 2.469 1.122.194 2.194-.204 3.46-1.47.192-.196.35-.408.398-.562.048-.154.054-.235-.148-.437l-2.055-1.57c-.276-.147-.388-.14-.465-.114-.078.026-.185.12-.34.293-.635.71-1.366.99-2.042.926-.674-.064-1.264-.437-1.723-.91M13.24 6.198a.354.354 0 1 0 0-.708h-2.326l4.695-4.7a.35.35 0 0 0 0-.498.35.35 0 0 0-.497 0l-4.701 4.696V2.662a.354.354 0 1 0-.707 0v3.182c0 .195.158.354.353.354h3.183z"/>
</symbol>

</svg>
