<?xml version="1.0" encoding="utf-8"?>
<!-- Generator: Adobe Illustrator 19.0.0, SVG Export Plug-In . SVG Version: 6.00 Build 0)  -->
<svg version="1.1" id="Layer_1" xmlns="http://www.w3.org/2000/svg" xmlns:xlink="http://www.w3.org/1999/xlink" x="0px" y="0px"
	 viewBox="0 0 44 44" style="enable-background:new 0 0 44 44;" xml:space="preserve">
<style type="text/css">
	.st0{fill:#3f419a;}
</style>
<g>
	<path class="st0" d="M23.8,25.4v-1.7c1.5-0.9,2.4-3,2.4-4.8c0-2.5-0.7-4.5-4.1-4.5c-3.4,0-4.1,2-4.1,4.5c0,1.9,0.9,3.9,2.4,4.8v1.8
		C18.2,26,15.6,26.7,15,27c-0.4,0.5-0.7,1.9-0.5,2.8h15.3c0.1-1-0.2-2.5-0.6-2.9C28.6,26.6,26,25.9,23.8,25.4z"/>
	<path class="st0" d="M22,0C9.8,0,0,9.8,0,22s9.8,22,22,22s22-9.8,22-22S34.2,0,22,0z M30.3,30.8H13.7c-0.9-1.3-0.5-4,0.4-4.8
		c0.4-0.4,3.7-1.2,5.3-1.6c-1.7-1.2-2.7-3.4-2.7-5.6c0-3.1,1-5.6,5.3-5.6s5.3,2.5,5.3,5.6c0,2.1-1,4.4-2.7,5.6
		c1.5,0.4,4.9,1.2,5.3,1.6C30.9,26.8,31.2,29.5,30.3,30.8z"/>
</g>
</svg>
