<svg xmlns="http://www.w3.org/2000/svg" width="16" height="16" viewBox="0 0 16 16">
    <path fill="#3F419A" fill-rule="evenodd" stroke="#3F419A" stroke-width=".3" d="M14.67 15.1H1.175c-.748-1.072-.445-3.218.303-3.933.357-.34 3.029-.984 4.307-1.277-1.35-.98-2.173-2.799-2.173-4.533 0-2.52.783-4.564 4.309-4.564 3.526 0 4.309 2.043 4.309 4.564 0 1.729-.82 3.542-2.163 4.525 1.25.29 3.962.952 4.308 1.285.742.715 1.038 2.86.295 3.932zm-.91-3.179c-.491-.246-2.602-.8-4.402-1.203V9.302c1.2-.763 1.91-2.421 1.91-3.928 0-2.038-.558-3.69-3.347-3.69-2.79 0-3.348 1.652-3.348 3.69 0 1.508.712 3.167 1.914 3.93v1.427c-1.81.398-3.91.942-4.393 1.19-.313.368-.586 1.548-.392 2.286h12.44c.193-.738-.074-1.915-.383-2.286z"/>
</svg>
