<svg xmlns="http://www.w3.org/2000/svg" width="24" height="24" viewBox="0 0 24 24">
    <path fill="#3F419A" fill-rule="evenodd" d="M23.32 23.157H1.537c-1.207-1.73-.718-5.193.49-6.347.575-.55 4.888-1.589 6.952-2.061-2.18-1.582-3.508-4.518-3.508-7.317 0-4.068 1.265-7.366 6.955-7.366s6.955 3.298 6.955 7.366c0 2.79-1.322 5.718-3.49 7.303 2.016.47 6.394 1.538 6.952 2.075 1.199 1.154 1.676 4.617.477 6.347zm-1.47-5.13c-.792-.397-4.2-1.29-7.105-1.942V13.8c1.937-1.232 3.084-3.908 3.084-6.34 0-3.289-.9-5.955-5.403-5.955-4.503 0-5.403 2.666-5.403 5.956 0 2.434 1.149 5.112 3.088 6.343v2.303c-2.92.642-6.31 1.52-7.09 1.92-.505.595-.946 2.5-.633 3.69h20.08c.31-1.19-.12-3.09-.618-3.689z"/>
</svg>
